<?xml version="1.0" encoding="UTF-8"?>
<svg xmlns="http://www.w3.org/2000/svg" xmlns:xlink="http://www.w3.org/1999/xlink" width="13pt" height="12.6565pt" viewBox="0 0 13 12.6565" version="1.1">
<defs>
<clipPath id="clip1">
  <path d="M 0 0 L 13 0 L 13 12.65625 L 0 12.65625 Z M 0 0 "/>
</clipPath>
</defs>
<g id="surface1">
<g clip-path="url(#clip1)" clip-rule="nonzero">
<path style=" stroke:none;fill-rule:nonzero;fill:rgb(66.667175%,66.667175%,66.667175%);fill-opacity:1;" d="M 9.859375 9.605469 L 11.699219 9.605469 L 11.699219 11.355469 L 9.859375 11.355469 Z M 1.300781 9.605469 L 3.140625 9.605469 L 3.140625 11.355469 L 1.300781 11.355469 Z M 9.859375 4.839844 L 11.699219 4.839844 L 11.699219 6.570312 L 9.859375 6.570312 Z M 9.859375 7.4375 L 11.699219 7.4375 L 11.699219 8.738281 L 9.859375 8.738281 Z M 6.933594 7.4375 L 8.992188 7.4375 L 8.992188 8.738281 L 6.933594 8.738281 Z M 6.933594 9.605469 L 8.992188 9.605469 L 8.992188 11.355469 L 6.933594 11.355469 Z M 6.066406 11.355469 L 4.007812 11.355469 L 4.007812 9.605469 L 6.066406 9.605469 Z M 4.007812 7.4375 L 6.066406 7.4375 L 6.066406 8.738281 L 4.007812 8.738281 Z M 3.140625 8.738281 L 1.300781 8.738281 L 1.300781 7.4375 L 3.140625 7.4375 Z M 3.140625 6.574219 L 1.300781 6.574219 L 1.300781 4.839844 L 3.140625 4.839844 Z M 6.933594 4.839844 L 8.992188 4.839844 L 8.992188 6.570312 L 6.933594 6.570312 Z M 6.066406 6.574219 L 4.007812 6.574219 L 4.007812 4.839844 L 6.066406 4.839844 Z M 12.351562 1.929688 L 10.183594 1.929688 L 10.183594 0.867188 C 10.183594 0.386719 9.796875 0 9.316406 0 C 8.839844 0 8.449219 0.386719 8.449219 0.867188 L 8.449219 1.929688 L 4.550781 1.929688 L 4.550781 0.867188 C 4.550781 0.386719 4.160156 0 3.683594 0 C 3.203125 0 2.816406 0.386719 2.816406 0.867188 L 2.816406 1.929688 L 0.648438 1.929688 C 0.289062 1.929688 0 2.222656 0 2.582031 L 0 12.007812 C 0 12.367188 0.289062 12.65625 0.648438 12.65625 L 12.351562 12.65625 C 12.710938 12.65625 13 12.367188 13 12.007812 L 13 2.582031 C 13 2.222656 12.710938 1.929688 12.351562 1.929688 "/>
</g>
</g>
</svg>
